<svg xmlns="http://www.w3.org/2000/svg" viewBox="0 0 1200 800" preserveAspectRatio="xMidYMid slice">
  <defs>
    <filter id="b" x="-50%" y="-50%" width="200%" height="200%">
      <feGaussianBlur stdDeviation="1.4"/>
    </filter>
  </defs>
  <circle cx="122.5" cy="547.6" r="4.12" fill="#A78BFA" opacity="0.63" filter="url(#b)"/>
  <circle cx="502.3" cy="210.3" r="3.38" fill="#A78BFA" opacity="0.71" filter="url(#b)"/>
  <circle cx="777.5" cy="671.6" r="2.85" fill="#A78BFA" opacity="0.67" filter="url(#b)"/>
  <circle cx="122.7" cy="161.5" r="2.92" fill="#A78BFA" opacity="0.65" filter="url(#b)"/>
  <circle cx="881.1" cy="122.2" r="3.31" fill="#A78BFA" opacity="0.55" filter="url(#b)"/>
  <circle cx="129.9" cy="229.7" r="3.51" fill="#A78BFA" opacity="0.46" filter="url(#b)"/>
  <circle cx="493.8" cy="148.1" r="2.05" fill="#A78BFA" opacity="0.50" filter="url(#b)"/>
  <circle cx="271.3" cy="182.7" r="2.08" fill="#A78BFA" opacity="0.65" filter="url(#b)"/>
  <circle cx="954.5" cy="170.8" r="3.80" fill="#A78BFA" opacity="0.42" filter="url(#b)"/>
  <circle cx="572.4" cy="685.3" r="3.47" fill="#A78BFA" opacity="0.43" filter="url(#b)"/>
  <circle cx="1034.1" cy="261.4" r="1.18" fill="#FFFFFF" opacity="0.86"/>
  <circle cx="933.8" cy="240.1" r="0.52" fill="#C4B5FD" opacity="0.56"/>
  <circle cx="1167.9" cy="385.5" r="0.50" fill="#FFFFFF" opacity="0.53"/>
  <circle cx="635.5" cy="310.5" r="0.51" fill="#FFFFFF" opacity="0.44"/>
  <circle cx="207.0" cy="226.9" r="0.51" fill="#FFFFFF" opacity="0.81"/>
  <circle cx="1172.5" cy="199.7" r="0.68" fill="#FFFFFF" opacity="0.96"/>
  <circle cx="368.2" cy="570.1" r="1.01" fill="#FFFFFF" opacity="0.59"/>
  <circle cx="68.7" cy="294.3" r="1.25" fill="#C4B5FD" opacity="0.90"/>
  <circle cx="635.7" cy="250.1" r="1.89" fill="#FFFFFF" opacity="0.47"/>
  <circle cx="1122.1" cy="317.1" r="1.14" fill="#FFFFFF" opacity="0.67"/>
  <circle cx="545.3" cy="773.7" r="0.58" fill="#C4B5FD" opacity="0.61"/>
  <circle cx="907.3" cy="112.1" r="1.18" fill="#FFFFFF" opacity="0.68"/>
  <circle cx="1068.3" cy="172.4" r="0.58" fill="#FFFFFF" opacity="0.91"/>
  <circle cx="160.0" cy="191.1" r="0.60" fill="#FFFFFF" opacity="0.55"/>
  <circle cx="313.0" cy="155.6" r="0.61" fill="#FFFFFF" opacity="0.33"/>
  <circle cx="672.9" cy="293.5" r="0.78" fill="#FFFFFF" opacity="0.78"/>
  <circle cx="479.0" cy="13.4" r="0.76" fill="#FFFFFF" opacity="0.46"/>
  <circle cx="1133.5" cy="232.4" r="1.12" fill="#C4B5FD" opacity="0.37"/>
  <circle cx="59.7" cy="260.6" r="1.09" fill="#C4B5FD" opacity="0.83"/>
  <circle cx="98.9" cy="230.6" r="1.20" fill="#FFFFFF" opacity="0.91"/>
  <circle cx="165.5" cy="136.4" r="2.04" fill="#FFFFFF" opacity="0.29"/>
  <circle cx="732.1" cy="679.1" r="0.50" fill="#FFFFFF" opacity="0.75"/>
  <circle cx="342.9" cy="108.3" r="1.79" fill="#FFFFFF" opacity="0.75"/>
  <circle cx="246.2" cy="224.5" r="1.19" fill="#C4B5FD" opacity="0.33"/>
  <circle cx="930.1" cy="40.7" r="0.64" fill="#FFFFFF" opacity="0.57"/>
  <circle cx="292.2" cy="791.5" r="1.24" fill="#FFFFFF" opacity="0.92"/>
  <circle cx="538.0" cy="676.1" r="1.26" fill="#FFFFFF" opacity="0.62"/>
  <circle cx="979.9" cy="698.4" r="1.22" fill="#FFFFFF" opacity="0.68"/>
  <circle cx="391.5" cy="161.1" r="2.06" fill="#FFFFFF" opacity="0.91"/>
  <circle cx="537.5" cy="667.4" r="0.63" fill="#FFFFFF" opacity="0.78"/>
  <circle cx="1105.7" cy="617.0" r="2.04" fill="#FFFFFF" opacity="0.95"/>
  <circle cx="397.2" cy="773.8" r="0.52" fill="#FFFFFF" opacity="0.43"/>
  <circle cx="452.6" cy="577.3" r="0.61" fill="#FFFFFF" opacity="0.42"/>
  <circle cx="309.8" cy="102.6" r="0.57" fill="#FFFFFF" opacity="0.79"/>
  <circle cx="227.1" cy="562.2" r="0.56" fill="#C4B5FD" opacity="0.78"/>
  <circle cx="533.0" cy="609.8" r="1.22" fill="#C4B5FD" opacity="0.63"/>
  <circle cx="719.7" cy="307.8" r="0.74" fill="#C4B5FD" opacity="0.75"/>
  <circle cx="506.1" cy="619.8" r="0.60" fill="#C4B5FD" opacity="0.96"/>
  <circle cx="140.2" cy="678.1" r="0.75" fill="#FFFFFF" opacity="0.54"/>
  <circle cx="339.7" cy="759.9" r="1.70" fill="#FFFFFF" opacity="0.58"/>
  <circle cx="284.9" cy="750.4" r="0.75" fill="#FFFFFF" opacity="0.47"/>
  <circle cx="131.0" cy="170.2" r="1.55" fill="#C4B5FD" opacity="0.32"/>
  <circle cx="107.9" cy="215.1" r="1.07" fill="#FFFFFF" opacity="0.52"/>
  <circle cx="1153.9" cy="142.0" r="0.74" fill="#FFFFFF" opacity="0.84"/>
  <circle cx="288.1" cy="278.2" r="0.99" fill="#FFFFFF" opacity="0.93"/>
  <circle cx="270.9" cy="155.1" r="0.63" fill="#FFFFFF" opacity="0.76"/>
  <circle cx="336.4" cy="150.7" r="1.15" fill="#C4B5FD" opacity="0.58"/>
  <circle cx="712.5" cy="620.3" r="0.54" fill="#FFFFFF" opacity="0.48"/>
  <circle cx="541.5" cy="563.6" r="1.01" fill="#FFFFFF" opacity="0.67"/>
  <circle cx="162.5" cy="796.9" r="1.26" fill="#C4B5FD" opacity="0.34"/>
  <circle cx="756.4" cy="762.1" r="0.60" fill="#FFFFFF" opacity="0.77"/>
  <circle cx="638.1" cy="651.3" r="0.77" fill="#FFFFFF" opacity="0.52"/>
  <circle cx="210.5" cy="249.5" r="1.90" fill="#FFFFFF" opacity="0.97"/>
  <circle cx="242.9" cy="665.5" r="1.03" fill="#FFFFFF" opacity="0.64"/>
  <circle cx="1064.1" cy="742.0" r="1.15" fill="#FFFFFF" opacity="0.45"/>
  <circle cx="1008.9" cy="85.3" r="0.72" fill="#FFFFFF" opacity="0.95"/>
  <circle cx="16.7" cy="517.1" r="0.71" fill="#FFFFFF" opacity="0.48"/>
  <circle cx="576.1" cy="181.2" r="0.61" fill="#FFFFFF" opacity="0.51"/>
  <circle cx="909.5" cy="205.8" r="0.71" fill="#FFFFFF" opacity="0.41"/>
  <circle cx="721.9" cy="722.2" r="0.53" fill="#FFFFFF" opacity="0.91"/>
  <circle cx="966.2" cy="130.8" r="0.50" fill="#FFFFFF" opacity="0.88"/>
  <circle cx="189.3" cy="228.8" r="0.59" fill="#FFFFFF" opacity="0.84"/>
  <circle cx="42.4" cy="197.9" r="0.56" fill="#FFFFFF" opacity="0.42"/>
  <circle cx="1199.6" cy="80.8" r="1.95" fill="#C4B5FD" opacity="0.96"/>
  <circle cx="87.3" cy="86.8" r="0.63" fill="#FFFFFF" opacity="0.39"/>
  <circle cx="405.1" cy="666.7" r="0.65" fill="#C4B5FD" opacity="0.71"/>
  <circle cx="680.0" cy="609.7" r="0.55" fill="#FFFFFF" opacity="0.73"/>
  <circle cx="35.2" cy="633.9" r="1.73" fill="#FFFFFF" opacity="0.84"/>
  <circle cx="525.9" cy="635.2" r="0.63" fill="#FFFFFF" opacity="0.85"/>
  <circle cx="297.1" cy="221.5" r="0.70" fill="#FFFFFF" opacity="0.80"/>
  <circle cx="1187.5" cy="424.2" r="0.69" fill="#C4B5FD" opacity="0.29"/>
  <circle cx="607.0" cy="672.9" r="1.95" fill="#C4B5FD" opacity="0.83"/>
  <circle cx="161.8" cy="169.4" r="0.95" fill="#FFFFFF" opacity="0.47"/>
  <circle cx="1198.0" cy="363.8" r="0.67" fill="#FFFFFF" opacity="0.76"/>
  <circle cx="478.7" cy="568.8" r="0.71" fill="#C4B5FD" opacity="0.29"/>
  <circle cx="145.0" cy="181.2" r="1.01" fill="#FFFFFF" opacity="0.56"/>
  <circle cx="581.8" cy="736.5" r="0.96" fill="#FFFFFF" opacity="0.67"/>
  <circle cx="1090.9" cy="251.0" r="0.63" fill="#FFFFFF" opacity="0.97"/>
  <circle cx="1068.8" cy="146.2" r="0.67" fill="#FFFFFF" opacity="0.87"/>
  <circle cx="938.5" cy="652.1" r="0.63" fill="#FFFFFF" opacity="0.87"/>
  <circle cx="19.4" cy="295.4" r="0.54" fill="#C4B5FD" opacity="0.78"/>
  <circle cx="293.1" cy="86.5" r="0.61" fill="#FFFFFF" opacity="0.63"/>
  <circle cx="303.0" cy="19.3" r="0.62" fill="#FFFFFF" opacity="0.55"/>
  <circle cx="671.7" cy="456.4" r="0.68" fill="#FFFFFF" opacity="0.79"/>
  <circle cx="1026.8" cy="8.6" r="1.79" fill="#FFFFFF" opacity="0.43"/>
  <circle cx="1077.5" cy="245.9" r="0.75" fill="#FFFFFF" opacity="0.64"/>
  <circle cx="274.1" cy="252.3" r="0.51" fill="#FFFFFF" opacity="0.48"/>
  <circle cx="597.7" cy="734.1" r="0.76" fill="#FFFFFF" opacity="0.63"/>
  <circle cx="643.2" cy="559.2" r="0.55" fill="#FFFFFF" opacity="0.82"/>
  <circle cx="72.5" cy="104.9" r="0.77" fill="#FFFFFF" opacity="0.68"/>
</svg>
